# xmcd
# Copyright (C) 1995-1998 Ti Kan
#
# Track frame offsets:
#       150
#       3033
#       30916
#       47543
#       80282
#       92628
#       107665
#       127037
#       143476
#       162300
#       177159
#       197735
#       221383
#
# Disc length: 3228 seconds
#
# Revision: 0
# Processed by: cddbd v1.5.2PL0 Copyright (c) Steve Scherf et al.
# Submitted via: CD-Import v1.0
#
DISCID=960c9a0d
DTITLE=Jet Tricks - All One Word
DYEAR=1900
DGENRE=
TTITLE0=In The Mechanical Garden
TTITLE1=We Are One 
TTITLE2=Club Card Points
TTITLE3=Miles and  Miles
TTITLE4=Magic Boy
TTITLE5=Essential
TTITLE6=Love So Simple
TTITLE7=Daddy Loves A Dancer
TTITLE8=Two In The Bush
TTITLE9=Reason To Be
TTITLE10=Nin-Com-Pop
TTITLE11=Slow Dance
TTITLE12=Practice
EXTD=
EXTT0=
EXTT1=
EXTT2=
EXTT3=
EXTT4=
EXTT5=
EXTT6=
EXTT7=
EXTT8=
EXTT9=
EXTT10=
EXTT11=
EXTT12=
PLAYORDER=
